<svg height="496pt" viewBox="0 0 496 496" width="496pt" xmlns="http://www.w3.org/2000/svg"><path d="m120 320c-39.695312 0-72 32.304688-72 72s32.304688 72 72 72 72-32.304688 72-72-32.304688-72-72-72zm0 128c-30.878906 0-56-25.121094-56-56s25.121094-56 56-56 56 25.121094 56 56-25.121094 56-56 56zm0 0"/><path d="m488 416h-32c-4.414062 0-8 3.585938-8 8v24h-160v-40c0-4.414062-3.585938-8-8-8h-40.265625c-3.023437-45.648438-31.734375-84.3125-71.734375-101.855469v-34.144531c0-4.414062-3.585938-8-8-8h-8v-24c0-4.414062-3.585938-8-8-8h-48c-4.414062 0-8 3.585938-8 8v24h-8c-4.414062 0-8 3.585938-8 8v34.089844c-42.328125 18.558594-72 60.8125-72 109.910156v80c0 4.414062 3.585938 8 8 8h480c4.414062 0 8-3.585938 8-8v-64c0-4.414062-3.585938-8-8-8zm-384-176h32v16h-32zm-16 32h64v20.425781c-10.199219-2.832031-20.910156-4.425781-32-4.425781-11.097656 0-21.792969 1.632812-32 4.464844zm-72 136c0-57.34375 46.65625-104 104-104s104 46.65625 104 104c0 4.414062 3.585938 8 8 8h40v64h-256zm272 56h160v16h-160zm192 16h-16v-48h16zm0 0"/><path d="m376 208c.847656 0 1.703125-.136719 2.527344-.40625l46.777344-15.59375h14.695312c13.230469 0 24-10.769531 24-24s-10.769531-24-24-24h-14.695312l-46.769532-15.59375c-.277344-.09375-.574218-.015625-.863281-.070312-.558594-.121094-1.078125-.335938-1.671875-.335938h-336c-22.054688 0-40 17.945312-40 40s17.945312 40 40 40zm72-40c0 4.40625-3.59375 8-8 8h-8v-16h8c4.40625 0 8 3.59375 8 8zm-32 10.230469-32 10.664062v-41.804687l32 10.664062zm-400-10.230469c0-13.230469 10.769531-24 24-24h328v48h-328c-13.230469 0-24-10.769531-24-24zm0 0"/><path d="m488 0h-480c-4.414062 0-8 3.585938-8 8v96c0 4.414062 3.585938 8 8 8h480c4.414062 0 8-3.585938 8-8v-96c0-4.414062-3.585938-8-8-8zm-8 96h-464v-80h16v48h16v-48h16v32h16v-32h16v32h16v-32h16v32h16v-32h16v32h16v-32h16v48h16v-48h16v32h16v-32h16v32h16v-32h16v32h16v-32h16v32h16v-32h16v48h16v-48h16v32h16v-32h16v32h16v-32h16v32h16v-32h16zm0 0"/></svg>