<svg height="496pt" viewBox="0 0 496 496" width="496pt" xmlns="http://www.w3.org/2000/svg"><path d="m424 160h-192c-13.230469 0-24 10.769531-24 24v25.230469c-2.558594-1.230469-5.175781-2.34375-7.902344-3.160157l-40.097656-12.023437v-10.925781c4.367188-4.464844 7.960938-9.671875 10.648438-15.386719 16.390624-1.375 29.351562-15 29.351562-31.734375v-56c0-44.113281-35.886719-80-80-80s-80 35.886719-80 80v56c0 16.734375 12.960938 30.359375 29.351562 31.726562 2.6875 5.714844 6.28125 10.921876 10.648438 15.386719v10.925781l-40.089844 12.03125c-23.871094 7.160157-39.910156 28.722657-39.910156 53.640626v76.289062h208v136c0 13.230469 10.769531 24 24 24h192c13.230469 0 24-10.769531 24-24v-288c0-13.230469-10.769531-24-24-24zm-304 40c8.601562 0 16.710938-2 24-5.480469v2.671875l-24 30-24-30v-2.671875c7.289062 3.480469 15.398438 5.480469 24 5.480469zm-7.640625 43.257812-28.238281 16.949219-17.089844-45.566406 18.097656-5.425781zm42.511719-34.042968 18.097656 5.425781-17.082031 45.558594-28.238281-16.953125zm5.128906-65.214844c0 22.054688-17.945312 40-40 40s-40-17.945312-40-40v-40.359375c14.265625-1.304687 27.953125-6.089844 40-14.023437 12.046875 7.933593 25.734375 12.71875 40 14.023437zm15.671875 5.953125c.207031-1.960937.328125-3.945313.328125-5.953125v-21.777344c4.761719 2.777344 8 7.882813 8 13.777344 0 6.03125-3.390625 11.222656-8.328125 13.953125zm-55.671875-133.953125c35.289062 0 64 28.710938 64 64v28.449219c-2.480469-1.449219-5.152344-2.578125-8-3.3125v-17.136719h-8c-14.121094 0-27.785156-4.144531-39.527344-11.96875l-8.472656-5.648438-8.472656 5.648438c-11.742188 7.824219-25.40625 11.96875-39.527344 11.96875h-8v17.136719c-2.847656.742187-5.519531 1.863281-8 3.3125v-28.449219c0-35.289062 28.710938-64 64-64zm-64 120c0-5.894531 3.238281-11 8-13.777344v21.777344c0 2.007812.121094 3.992188.328125 5.953125-4.9375-2.730469-8.328125-7.921875-8.328125-13.953125zm136 184v-40h-16v40h-112v-40h-16v40h-32v-60.289062c0-17.800782 11.457031-33.191407 28.503906-38.3125l7.167969-2.152344 24.207031 64.546875 44.121094-26.464844 44.121094 26.464844 24.207031-64.546875 7.167969 2.152344c4.472656 1.335937 8.65625 3.546874 12.503906 6.496093v92.105469zm240 152c0 4.414062-3.59375 8-8 8h-192c-4.40625 0-8-3.585938-8-8v-288c0-4.40625 3.59375-8 8-8h192c4.40625 0 8 3.59375 8 8zm0 0"/><path d="m368 464h48v-112h-48zm16-96h16v80h-16zm0 0"/><path d="m304 464h48v-48h-48zm16-32h16v16h-16zm0 0"/><path d="m304 400h48v-48h-48zm16-32h16v16h-16zm0 0"/><path d="m240 464h48v-48h-48zm16-32h16v16h-16zm0 0"/><path d="m240 400h48v-48h-48zm16-32h16v16h-16zm0 0"/><path d="m304 336h48v-48h-48zm16-32h16v16h-16zm0 0"/><path d="m368 336h48v-48h-48zm16-32h16v16h-16zm0 0"/><path d="m240 336h48v-48h-48zm16-32h16v16h-16zm0 0"/><path d="m240 272h176v-80h-176zm16-64h144v48h-144zm0 0"/><path d="m484.425781 69.265625-42.539062-21.265625h-225.886719v16h40v48h-40v16h225.886719l42.527343-21.265625c7.144532-3.566406 11.585938-10.742187 11.585938-18.734375s-4.441406-15.167969-11.574219-18.734375zm-180.425781-5.265625h128v16h-128zm0 32h128v16h-128zm-32-32h16v48h-16zm205.265625 28.425781-29.265625 14.628907v-38.109376l29.273438 14.628907c1.679687.851562 2.726562 2.539062 2.726562 4.425781s-1.046875 3.574219-2.734375 4.425781zm0 0"/></svg>