<svg xmlns="http://www.w3.org/2000/svg" version="1.1" xmlns:xlink="http://www.w3.org/1999/xlink" xmlns:svgjs="http://svgjs.com/svgjs" height="66.999122583276" width="290.760498046875"><defs id="SvgjsDefs1172"></defs><g id="SvgjsG1173" rel="mainfill" name="main_text" xmlns:name="main_text" transform="translate(81.53050571680069,-196.7954368773073)" fill="#3B3B3B"><path d="M25.34 220.59L22.21 220.59C21.32 220.59 21.12 221.18 21.03 221.54L18.11 231.56L15.25 221.54C15.13 221.12 14.92 220.59 14.28 220.59L12.21 220.59C11.53 220.59 11.33 221.12 11.21 221.54L8.38 231.56L5.46 221.54C5.34 221.18 5.16 220.59 4.28 220.59L1.03 220.59C0.50 220.59 0.41 221.09 0.50 221.45L5.96 239.38C5.96 239.38 6.11 240 6.75 240L9.35 240C10.12 240 10.29 239.32 10.29 239.32L13.24 229.91L16.19 239.32C16.19 239.32 16.37 240 17.14 240L19.61 240C20.26 240 20.41 239.38 20.41 239.38L25.84 221.45C25.96 221.09 25.87 220.59 25.34 220.59ZM43.92 226.82C43.92 222.16 39.49 220.15 35.98 220.15C32.47 220.15 28.11 222.16 28.11 226.82L28.11 233.78C28.11 238.44 32.47 240.44 35.98 240.44C39.49 240.44 43.92 238.44 43.92 233.78ZM39.29 233.36C39.29 235.25 37.93 236.34 35.98 236.34C34.07 236.34 32.71 235.25 32.71 233.36L32.71 227.23C32.71 225.34 34.07 224.25 35.98 224.25C37.93 224.25 39.29 225.34 39.29 227.23ZM62.94 226.82C62.94 222.16 58.52 220.15 55.01 220.15C51.50 220.15 47.13 222.16 47.13 226.82L47.13 233.78C47.13 238.44 51.50 240.44 55.01 240.44C58.52 240.44 62.94 238.44 62.94 233.78ZM58.31 233.36C58.31 235.25 56.95 236.34 55.01 236.34C53.09 236.34 51.73 235.25 51.73 233.36L51.73 227.23C51.73 225.34 53.09 224.25 55.01 224.25C56.95 224.25 58.31 225.34 58.31 227.23ZM74.18 220.59L67.57 220.59C66.89 220.59 66.72 220.92 66.72 221.45L66.72 239.14C66.72 239.68 66.89 240 67.57 240L74.18 240C77.69 240 82.11 237.99 82.11 233.36L82.11 227.23C82.11 222.63 77.69 220.59 74.18 220.59ZM77.48 232.95C77.48 234.84 76.12 235.90 74.18 235.90L71.35 235.90L71.35 224.69L74.18 224.69C76.12 224.69 77.48 225.78 77.48 227.64ZM99.96 235.87L90.55 235.87L90.55 231.98L98.45 231.98C99.13 231.98 99.31 231.65 99.31 231.12L99.31 228.82C99.31 228.29 99.13 227.97 98.45 227.97L90.55 227.97L90.55 224.75L99.46 224.75C100.13 224.75 100.31 224.43 100.31 223.90L100.31 221.45C100.31 220.92 100.13 220.59 99.46 220.59L86.74 220.59C86.06 220.59 85.89 220.92 85.89 221.45L85.89 239.14C85.89 239.68 86.06 240 86.74 240L99.96 240C100.63 240 100.81 239.68 100.81 239.14L100.81 236.73C100.81 236.20 100.63 235.87 99.96 235.87ZM119.28 220.59L116.44 220.59C115.91 220.59 115.59 220.77 115.59 221.45L115.59 231.68L109.34 221.60C108.95 221.01 108.75 220.59 108.01 220.59L105.24 220.59C104.56 220.59 104.38 220.92 104.38 221.45L104.38 239.14C104.38 239.82 104.71 240 105.24 240L108.16 240C108.69 240 109.01 239.82 109.01 239.14L109.01 228.88L115.26 239.00C115.65 239.59 115.85 240 116.59 240L119.28 240C119.95 240 120.13 239.68 120.13 239.14L120.13 221.45C120.13 220.77 119.81 220.59 119.28 220.59ZM131.99 220.59L125.35 220.59C124.67 220.59 124.50 220.92 124.50 221.45L124.50 239.14C124.50 239.82 124.82 240 125.35 240L128.27 240C128.80 240 129.13 239.82 129.13 239.14L129.13 234.25L131.96 234.25C137.00 234.25 139.71 231.54 139.71 227.44C139.71 223.37 137.06 220.59 131.99 220.59ZM131.96 230.27L129.13 230.27L129.13 224.75L131.96 224.75C134.26 224.75 135.26 225.99 135.26 227.52C135.26 229.00 134.26 230.27 131.96 230.27ZM158.27 226.82C158.27 222.16 153.84 220.15 150.33 220.15C146.82 220.15 142.46 222.16 142.46 226.82L142.46 233.78C142.46 238.44 146.82 240.44 150.33 240.44C153.84 240.44 158.27 238.44 158.27 233.78ZM153.64 233.36C153.64 235.25 152.28 236.34 150.33 236.34C148.42 236.34 147.06 235.25 147.06 233.36L147.06 227.23C147.06 225.34 148.42 224.25 150.33 224.25C152.28 224.25 153.64 225.34 153.64 227.23ZM170.48 235.96L168.62 235.96L168.62 224.69L170.39 224.69C171.07 224.69 171.24 224.37 171.24 223.84L171.24 221.45C171.24 220.92 171.07 220.59 170.39 220.59L162.19 220.59C161.51 220.59 161.33 220.92 161.33 221.45L161.33 223.84C161.33 224.37 161.51 224.69 162.19 224.69L163.99 224.69L163.99 235.96L162.13 235.96C161.45 235.96 161.28 236.28 161.28 236.81L161.28 239.14C161.28 239.68 161.45 240 162.13 240L170.48 240C171.16 240 171.33 239.68 171.33 239.14L171.33 236.81C171.33 236.28 171.16 235.96 170.48 235.96ZM190.03 220.59L187.20 220.59C186.67 220.59 186.35 220.77 186.35 221.45L186.35 231.68L180.09 221.60C179.71 221.01 179.50 220.59 178.77 220.59L175.99 220.59C175.31 220.59 175.14 220.92 175.14 221.45L175.14 239.14C175.14 239.82 175.46 240 175.99 240L178.91 240C179.44 240 179.77 239.82 179.77 239.14L179.77 228.88L186.02 239.00C186.40 239.59 186.61 240 187.35 240L190.03 240C190.71 240 190.89 239.68 190.89 239.14L190.89 221.45C190.89 220.77 190.56 220.59 190.03 220.59ZM208.38 220.59L194.69 220.59C194.01 220.59 193.84 220.92 193.84 221.45L193.84 223.90C193.84 224.43 194.01 224.75 194.69 224.75L199.23 224.75L199.23 239.14C199.23 239.82 199.56 240 200.09 240L203.01 240C203.54 240 203.87 239.82 203.87 239.14L203.87 224.75L208.38 224.75C209.06 224.75 209.23 224.43 209.23 223.90L209.23 221.45C209.23 220.92 209.06 220.59 208.38 220.59Z" fill="#3B3B3B" style="fill: rgb(59, 59, 59);"></path></g><g id="SvgjsG1174" rel="mainfill" name="symbol" xmlns:name="symbol_mainfill" transform="translate(-6.309338302876597,-6.309338302876597) scale(0.884652037279029)" fill="#3B3B3B"><g fill="#3B3B3B"><polygon fill="" points="7.132,7.132 7.132,67.343 13.835,67.343 13.835,13.835 76.165,13.835 76.165,76.164 19.253,76.164    19.253,76.166 7.132,76.166 7.132,82.867 82.868,82.867 82.868,7.132  "></polygon></g></g></svg>